<?xml version="1.0" encoding="UTF-8" standalone="no"?>
<!DOCTYPE svg PUBLIC "-//W3C//DTD SVG 1.1//EN" "http://www.w3.org/Graphics/SVG/1.1/DTD/svg11.dtd">
<svg width="100%" height="100%" viewBox="0 0 448 128" version="1.1" xmlns="http://www.w3.org/2000/svg" xmlns:xlink="http://www.w3.org/1999/xlink" xml:space="preserve" xmlns:serif="http://www.serif.com/" style="fill-rule:evenodd;clip-rule:evenodd;stroke-linecap:round;stroke-linejoin:round;stroke-miterlimit:1.5;">
    <g transform="matrix(1,0,0,1,-8.51723,-11.8188)">
        <g transform="matrix(1.17887,0,0,1.44631,-43.5796,-89.1587)">
            <ellipse cx="102.594" cy="114.073" rx="29.689" ry="24.199" style="fill:rgb(163,206,255);"/>
            <path d="M102.594,89.874C118.98,89.874 132.283,100.717 132.283,114.073C132.283,127.429 118.98,138.273 102.594,138.273C86.208,138.273 72.904,127.429 72.904,114.073C72.904,100.717 86.208,89.874 102.594,89.874ZM102.594,92.639C117.107,92.639 128.89,102.244 128.89,114.073C128.89,125.903 117.107,135.507 102.594,135.507C88.08,135.507 76.297,125.903 76.297,114.073C76.297,102.244 88.08,92.639 102.594,92.639Z" style="fill:rgb(16,124,203);"/>
        </g>
        <g transform="matrix(1,0,0,1,-14.718,-139.961)">
            <path d="M87.083,219.449C84.095,217.719 82.083,214.487 82.083,210.788C82.083,205.269 86.564,200.788 92.083,200.788C97.602,200.788 102.083,205.269 102.083,210.788C102.083,214.487 100.071,217.719 97.083,219.449L97.083,225.788C97.083,228.55 94.845,230.788 92.083,230.788L92.083,230.788C89.322,230.788 87.083,228.55 87.083,225.788L87.083,219.449Z" style="fill:none;stroke:rgb(16,124,203);stroke-width:4px;"/>
        </g>
        <g transform="matrix(2.77556e-16,1,-1,2.77556e-16,293.145,-16.2644)">
            <path d="M119.381,251.555C111.805,257.347 102.343,260.788 92.083,260.788C81.823,260.788 72.361,257.347 64.785,251.555" style="fill:none;stroke:rgb(242,170,61);stroke-width:4px;"/>
        </g>
        <g transform="matrix(-1.66533e-16,-1,1,-1.66533e-16,-138.415,167.902)">
            <path d="M119.381,251.555C111.805,257.347 102.343,260.788 92.083,260.788C81.823,260.788 72.361,257.347 64.785,251.555" style="fill:none;stroke:rgb(242,170,61);stroke-width:4px;"/>
        </g>
    </g>
    <g transform="matrix(1,0,0,1,-13.0664,17.9403)">
        <g transform="matrix(72,0,0,72,141.594,70.7557)">
            <path d="M0.138,-0.033L0.496,-0.033L0.496,0.03L0.06,0.03L0.06,-0.716L0.138,-0.716L0.138,-0.033Z" style="fill-rule:nonzero;"/>
        </g>
        <g transform="matrix(72,0,0,72,178.746,70.7557)">
            <path d="M0.41,-0.255C0.41,-0.308 0.399,-0.349 0.377,-0.38C0.354,-0.411 0.317,-0.426 0.264,-0.426C0.211,-0.426 0.174,-0.411 0.152,-0.38C0.13,-0.349 0.119,-0.308 0.119,-0.255L0.119,-0.192C0.119,-0.14 0.13,-0.098 0.152,-0.067C0.174,-0.036 0.211,-0.02 0.264,-0.02C0.317,-0.02 0.354,-0.036 0.377,-0.067C0.399,-0.098 0.41,-0.14 0.41,-0.192L0.41,-0.255ZM0.264,-0.489C0.337,-0.489 0.392,-0.469 0.431,-0.43C0.47,-0.39 0.489,-0.332 0.489,-0.255L0.489,-0.192C0.489,-0.115 0.47,-0.057 0.431,-0.017C0.392,0.024 0.337,0.044 0.264,0.044C0.193,0.044 0.138,0.024 0.099,-0.017C0.06,-0.057 0.04,-0.115 0.04,-0.192L0.04,-0.255C0.04,-0.332 0.06,-0.39 0.099,-0.43C0.138,-0.469 0.193,-0.489 0.264,-0.489Z" style="fill-rule:nonzero;"/>
        </g>
        <g transform="matrix(72,0,0,72,216.834,70.7557)">
            <path d="M0.465,-0.474L0.465,0.037C0.465,0.066 0.461,0.093 0.453,0.118C0.444,0.143 0.431,0.164 0.414,0.182C0.396,0.2 0.373,0.214 0.346,0.224C0.318,0.234 0.285,0.239 0.247,0.239C0.216,0.239 0.187,0.237 0.16,0.232C0.133,0.227 0.105,0.217 0.074,0.202L0.096,0.145C0.121,0.157 0.145,0.165 0.166,0.17C0.187,0.175 0.211,0.177 0.238,0.177C0.255,0.177 0.272,0.175 0.289,0.172C0.306,0.168 0.322,0.161 0.337,0.152C0.351,0.143 0.363,0.13 0.372,0.113C0.381,0.096 0.386,0.074 0.386,0.048L0.386,0.009C0.368,0.02 0.348,0.028 0.326,0.035C0.304,0.041 0.281,0.044 0.258,0.044C0.185,0.044 0.131,0.022 0.095,-0.021C0.058,-0.064 0.04,-0.128 0.04,-0.212L0.04,-0.23C0.04,-0.399 0.113,-0.484 0.258,-0.484C0.283,-0.484 0.307,-0.481 0.328,-0.474C0.349,-0.467 0.369,-0.459 0.386,-0.448L0.386,-0.474L0.465,-0.474ZM0.119,-0.212C0.119,-0.151 0.129,-0.103 0.149,-0.07C0.169,-0.037 0.205,-0.02 0.258,-0.02C0.27,-0.02 0.282,-0.021 0.295,-0.024C0.307,-0.026 0.319,-0.029 0.33,-0.034C0.341,-0.038 0.352,-0.043 0.362,-0.05C0.372,-0.056 0.38,-0.063 0.386,-0.071L0.386,-0.372C0.37,-0.389 0.35,-0.401 0.328,-0.409C0.305,-0.417 0.281,-0.421 0.258,-0.421C0.232,-0.421 0.21,-0.417 0.192,-0.408C0.174,-0.399 0.16,-0.386 0.149,-0.37C0.138,-0.353 0.131,-0.333 0.126,-0.31C0.121,-0.286 0.119,-0.259 0.119,-0.23L0.119,-0.212Z" style="fill-rule:nonzero;"/>
        </g>
        <g transform="matrix(72,0,0,72,254.634,70.7557)">
            <path d="M0.065,-0.704L0.148,-0.704L0.148,-0.583L0.065,-0.583L0.065,-0.704ZM0.146,-0.474L0.146,0.03L0.067,0.03L0.067,-0.474L0.146,-0.474Z" style="fill-rule:nonzero;"/>
        </g>
        <g transform="matrix(72,0,0,72,269.97,70.7557)">
            <path d="M0.394,0.03L0.394,-0.286C0.394,-0.304 0.392,-0.321 0.388,-0.338C0.383,-0.354 0.377,-0.368 0.368,-0.381C0.359,-0.393 0.347,-0.403 0.333,-0.41C0.318,-0.417 0.301,-0.42 0.281,-0.42C0.258,-0.42 0.234,-0.416 0.21,-0.407C0.186,-0.398 0.162,-0.387 0.139,-0.372L0.139,0.03L0.06,0.03L0.06,-0.474L0.139,-0.474L0.139,-0.437C0.184,-0.468 0.234,-0.484 0.29,-0.484C0.351,-0.484 0.396,-0.467 0.427,-0.435C0.458,-0.401 0.473,-0.356 0.473,-0.297L0.473,0.03L0.394,0.03Z" style="fill-rule:nonzero;"/>
        </g>
        <g transform="matrix(72,0,0,72,308.346,70.7557)">
            <path d="M0.138,-0.397L0.494,-0.397L0.494,-0.716L0.572,-0.716L0.572,0.03L0.494,0.03L0.494,-0.335L0.138,-0.335L0.138,0.03L0.06,0.03L0.06,-0.716L0.138,-0.716L0.138,-0.397Z" style="fill-rule:nonzero;"/>
        </g>
        <g transform="matrix(72,0,0,72,353.85,70.7557)">
            <path d="M0.139,-0.475L0.139,-0.154C0.139,-0.112 0.149,-0.079 0.169,-0.056C0.188,-0.032 0.218,-0.02 0.259,-0.02C0.284,-0.02 0.309,-0.022 0.332,-0.025C0.355,-0.028 0.376,-0.033 0.395,-0.04L0.395,-0.475L0.474,-0.475L0.474,0.005C0.437,0.019 0.402,0.029 0.367,0.035C0.332,0.041 0.293,0.044 0.25,0.044C0.189,0.044 0.142,0.029 0.11,-0.002C0.077,-0.032 0.06,-0.079 0.06,-0.143L0.06,-0.475L0.139,-0.475Z" style="fill-rule:nonzero;"/>
        </g>
        <g transform="matrix(72,0,0,72,392.298,70.7557)">
            <path d="M0.287,-0.484C0.319,-0.484 0.347,-0.48 0.372,-0.472C0.397,-0.463 0.417,-0.45 0.434,-0.431C0.451,-0.412 0.463,-0.388 0.472,-0.358C0.481,-0.327 0.485,-0.29 0.485,-0.245L0.485,-0.197C0.485,-0.153 0.481,-0.116 0.473,-0.085C0.464,-0.054 0.452,-0.029 0.435,-0.011C0.418,0.009 0.398,0.022 0.373,0.031C0.348,0.04 0.32,0.044 0.287,0.044C0.237,0.044 0.195,0.041 0.16,0.034C0.125,0.027 0.092,0.017 0.06,0.005L0.06,-0.716L0.139,-0.716L0.139,-0.446C0.158,-0.458 0.18,-0.467 0.205,-0.474C0.23,-0.481 0.257,-0.484 0.287,-0.484ZM0.406,-0.245C0.406,-0.31 0.397,-0.355 0.378,-0.382C0.359,-0.408 0.329,-0.421 0.287,-0.421C0.249,-0.421 0.217,-0.416 0.191,-0.405C0.164,-0.394 0.147,-0.38 0.139,-0.364L0.139,-0.038C0.154,-0.033 0.173,-0.028 0.199,-0.025C0.224,-0.022 0.253,-0.02 0.287,-0.02C0.308,-0.02 0.326,-0.023 0.341,-0.029C0.356,-0.034 0.369,-0.044 0.378,-0.058C0.387,-0.071 0.394,-0.089 0.399,-0.112C0.404,-0.135 0.406,-0.163 0.406,-0.197L0.406,-0.245Z" style="fill-rule:nonzero;"/>
        </g>
    </g>
</svg>
