<?xml version="1.0" encoding="UTF-8" standalone="no"?>
<!DOCTYPE svg PUBLIC "-//W3C//DTD SVG 1.1//EN" "http://www.w3.org/Graphics/SVG/1.1/DTD/svg11.dtd">
<svg width="100%" height="100%" viewBox="0 0 40 100" version="1.1" xmlns="http://www.w3.org/2000/svg" xmlns:xlink="http://www.w3.org/1999/xlink" xml:space="preserve" xmlns:serif="http://www.serif.com/" style="fill-rule:evenodd;clip-rule:evenodd;stroke-linejoin:round;stroke-miterlimit:2;">
    <g transform="matrix(0.294276,0,0,0.291634,33.4088,57.7578)">
        <path d="M0,-29.025C-0.193,-50.145 17.252,-60.285 18.016,-60.758C8.219,-75.109 -7.068,-77.108 -12.482,-77.344C-25.49,-78.654 -37.876,-69.674 -44.45,-69.674C-51.046,-69.674 -61.23,-77.129 -71.994,-76.914C-86.195,-76.721 -99.235,-68.664 -106.54,-56.01C-121.256,-30.465 -110.321,7.391 -95.948,28.102C-88.945,38.243 -80.598,49.629 -69.63,49.221C-59.039,48.813 -55.042,42.389 -42.259,42.389C-29.497,42.389 -25.888,49.221 -14.695,49.049C-3.33,48.813 3.889,38.672 10.828,28.532C18.863,16.758 22.205,5.371 22.398,4.77C22.15,4.684 0.215,-3.738 0,-29.025" style="fill:white;fill-rule:nonzero;"/>
    </g>
    <g transform="matrix(0.199147,-0.223691,-0.247439,-0.216351,28.9774,27.6727)">
        <path d="M-8.037,-3.714C1.114,-3.434 11.076,0.115 17.69,7.395C11.897,13.472 1.204,17.604 -8.037,17.459C-16.323,17.368 -26.972,14.306 -33.288,7.013C-27.636,-0.464 -17.182,-4.032 -8.037,-3.714" style="fill:white;fill-rule:nonzero;"/>
    </g>
</svg>
