<?xml version="1.0" encoding="UTF-8" standalone="no"?>
<!DOCTYPE svg PUBLIC "-//W3C//DTD SVG 1.1//EN" "http://www.w3.org/Graphics/SVG/1.1/DTD/svg11.dtd">
<svg width="100%" height="100%" viewBox="0 0 49 100" version="1.1" xmlns="http://www.w3.org/2000/svg" xmlns:xlink="http://www.w3.org/1999/xlink" xml:space="preserve" xmlns:serif="http://www.serif.com/" style="fill-rule:evenodd;clip-rule:evenodd;stroke-linejoin:round;stroke-miterlimit:2;">
    <g transform="matrix(0.133008,0,0,0.133008,-0.000665041,25)">
        <g transform="matrix(8.33333,0,0,8.33333,-8700.11,-3039.21)">
            <path d="M1066.57,383.158L1066.57,391.885L1078.71,391.885C1078.19,394.701 1076.6,397.092 1074.21,398.692L1074.21,404.352L1081.5,404.352C1085.76,400.425 1088.22,394.643 1088.22,387.774C1088.22,386.172 1088.08,384.635 1087.81,383.158L1066.57,383.158Z" style="fill:rgb(80,123,189);fill-rule:nonzero;"/>
        </g>
        <g transform="matrix(8.33333,0,0,8.33333,-8700.11,-2923.77)">
            <path d="M1046.41,377.695L1046.41,383.537C1050.12,390.91 1057.75,395.963 1066.57,395.963C1072.66,395.963 1077.77,393.943 1081.5,390.5L1074.21,384.84C1072.19,386.194 1069.6,386.994 1066.57,386.994C1060.69,386.994 1055.72,383.026 1053.95,377.695L1046.41,377.695Z" style="fill:rgb(50,167,81);fill-rule:nonzero;"/>
        </g>
        <g transform="matrix(8.33333,0,0,8.33333,-8700.11,-3147.46)">
            <path d="M1046.41,390.121C1044.89,393.166 1044.01,396.612 1044.01,400.25C1044.01,403.889 1044.89,407.334 1046.41,410.379L1053.95,404.537C1053.5,403.183 1053.24,401.736 1053.24,400.25C1053.24,398.763 1053.5,397.318 1053.95,395.965L1053.95,390.121L1046.41,390.121Z" style="fill:rgb(246,185,22);fill-rule:nonzero;"/>
        </g>
        <g transform="matrix(8.33333,0,0,8.33333,-8700.11,-3167.28)">
            <path d="M1046.41,392.499L1053.95,398.343C1055.72,393.011 1060.69,389.044 1066.57,389.044C1069.88,389.044 1072.85,390.183 1075.19,392.417L1081.66,385.948C1077.75,382.308 1072.65,380.073 1066.57,380.073C1057.75,380.073 1050.12,385.128 1046.41,392.499Z" style="fill:rgb(231,66,51);fill-rule:nonzero;"/>
        </g>
    </g>
</svg>
